<?xml version="1.0" ?><svg id="Layer_2" style="enable-background:new 0 0 1000 1000;" version="1.1" viewBox="0 0 1000 1000" xml:space="preserve" xmlns="http://www.w3.org/2000/svg" xmlns:xlink="http://www.w3.org/1999/xlink"><path d="M170.303,571.074h38.627c5.709,30.048,32.116,52.765,63.827,52.765  c31.7,0,58.108-22.717,63.817-52.765h324.992c5.709,30.048,32.116,52.765,63.827,52.765c31.701,0,58.108-22.717,63.817-52.765  h40.477c10.062,0,18.225-8.163,18.225-18.225v-5.105c0-7.223-4.205-13.466-10.29-16.414c1.692-3.591,2.632-7.599,2.632-11.833  v-19.135c0-10.755-2.523-21.203-7.203-30.563c-4.68-9.38-11.507-17.671-20.105-24.132c-5.452-4.096-11.487-7.361-17.898-9.676  l-44.939-16.207c-3.661-1.316-7.708-1.078-11.19,0.663l-8.558,4.274c-3.046,1.523-6.123,2.967-9.238,4.342l-13.782-12.402  c-0.614-0.553-1.275-1.052-1.974-1.492l-13.898-8.745c-6.314-3.973-14.614-2.501-19.177,3.401  c-2.793,3.613-3.594,8.086-2.634,12.164c1.045,4.438-0.476,9.003-3.483,12.43c-0.409,0.466-0.793,0.964-1.149,1.493  c-1.919,2.854-2.621,6.143-2.298,9.326c-0.005,0.001-0.009,0.001-0.014,0.002c-8.707,1.108-17.493,1.662-26.318,1.662h-75.512  l3.245-5.491c0.425-0.712,0.782-1.454,1.078-2.236l5.818-15.346c0.643-1.682,0.94-3.423,0.94-5.135  c0-5.372-2.988-10.488-8.063-12.991c-7.698-3.799-16.988-0.119-19.996,7.915l-3.384,9.083c-0.831,2.216-2.196,4.205-3.967,5.768  l-20.827,18.433h-79.292c-3.611,0-7.094-0.95-10.122-2.671c-3.038-1.732-5.64-4.235-7.48-7.332  c-4.68-7.846-3.592-17.839,2.652-24.498l23.083-24.626c1.296-1.385,1.88-3.047,1.88-4.67c0-3.552-2.77-6.946-6.906-6.946  c-1.801,0-3.522,0.693-4.808,1.949c-9.964,9.746-57.98,52.696-131.641,54.447c-44.771,1.069-85.119,7.876-112.832,13.931  c-21.5,4.7-35.49,25.477-31.77,47.175l1.355,7.915c1.217,7.094,2.009,14.248,2.899,21.381c0.327,2.602,1.009,5.086,2.009,7.421  c-7.341,2.345-12.665,9.241-12.665,17.364v5.105C152.088,562.912,160.241,571.074,170.303,571.074z M789.428,487.796l1.207-3.997  c1.306-4.284,5.254-7.213,9.736-7.213h16.701c2.157,0,4.077,1.395,4.749,3.443c2.117,6.471,2.573,12.14,2.543,15.939  c-0.01,2.741-2.236,4.957-4.977,4.957h-20.233C792.327,500.925,787.439,494.326,789.428,487.796z M687.034,546.774  c0.366-1.164,0.789-2.301,1.255-3.416c0.05-0.12,0.098-0.242,0.149-0.362c0.214-0.497,0.439-0.988,0.672-1.475  c0.035-0.073,0.072-0.145,0.108-0.218c0.053-0.107,0.106-0.215,0.159-0.323c0.234-0.47,0.471-0.94,0.723-1.4  c4.492,0.782,9.291-0.554,12.764-4.027c3.383-3.394,4.739-8.034,4.076-12.437c0.544-0.277,1.088-0.554,1.643-0.801  c0.128-0.059,0.267-0.119,0.396-0.178c0.396-0.178,0.792-0.346,1.187-0.515c0.059-0.03,0.119-0.049,0.188-0.079  c0.534-0.218,1.078-0.425,1.633-0.613c0.04-0.02,0.089-0.04,0.128-0.05c0.544-0.178,1.089-0.356,1.633-0.524  c2.642,3.552,6.867,5.857,11.646,5.857c4.768,0,8.993-2.305,11.634-5.856c0.011,0.003,0.022,0.006,0.033,0.01  c0.002,0,0.003,0.001,0.005,0.001c0.64,0.195,1.271,0.398,1.893,0.621c0.623,0.227,1.237,0.465,1.85,0.722  c0.049,0.01,0.099,0.03,0.138,0.059c0.584,0.238,1.158,0.495,1.722,0.772c0.307,0.138,0.604,0.287,0.9,0.445  c0.297,0.148,0.584,0.307,0.881,0.465c-0.544,4.294,0.821,8.796,4.126,12.101c3.312,3.312,7.829,4.667,12.14,4.107  c0.128,0.235,0.258,0.47,0.381,0.708c0.246,0.474,0.482,0.955,0.71,1.44c0.173,0.368,0.34,0.741,0.502,1.117  c0.225,0.521,0.447,1.044,0.65,1.576c0.084,0.218,0.163,0.435,0.241,0.653c0.242,0.668,0.473,1.342,0.681,2.025  c-3.354,2.652-5.511,6.758-5.511,11.368c0,4.68,2.226,8.836,5.669,11.487c-0.099,0.346-0.198,0.693-0.306,1.039  c-0.722,2.266-1.653,4.442-2.741,6.52c-4.255-0.505-8.687,0.871-11.952,4.136c-3.354,3.354-4.71,7.935-4.096,12.289  c-2.493,1.385-5.135,2.523-7.915,3.364c-2.642-3.552-6.867-5.857-11.635-5.857c-4.769,0-9.004,2.305-11.646,5.857  c-2.553-0.772-4.997-1.791-7.302-3.028c0.732-4.452-0.613-9.192-4.047-12.625c-3.423-3.423-8.133-4.779-12.575-4.066  c-1.108-2.088-2.048-4.294-2.78-6.589c-0.069-0.208-0.129-0.416-0.188-0.633c3.75-2.622,6.213-6.966,6.213-11.893  C693.069,553.7,690.685,549.406,687.034,546.774z M511.195,474.933h7.777h13.001c3.097,0,5.808,1.672,7.262,4.165  c0.732,1.247,1.148,2.691,1.148,4.245c0,4.65-3.76,8.41-8.41,8.41h-20.778c-4.64,0-8.41-3.76-8.41-8.41  C502.785,478.703,506.555,474.933,511.195,474.933z M234.396,546.774c0.349-1.109,0.752-2.194,1.193-3.26  c0.079-0.191,0.155-0.384,0.237-0.574c0.195-0.452,0.4-0.898,0.612-1.342c0.119-0.249,0.242-0.496,0.366-0.743  c0.214-0.427,0.428-0.854,0.658-1.273c0,0,0,0,0,0c4.496,0.784,9.29-0.557,12.763-4.029c3.388-3.388,4.743-8.036,4.079-12.436  c0.338-0.175,0.683-0.336,1.026-0.502c0.209-0.101,0.414-0.208,0.625-0.305c0.535-0.246,1.076-0.48,1.624-0.703  c0.018-0.007,0.036-0.016,0.053-0.023c1.134-0.46,2.294-0.87,3.476-1.228c0.001,0,0.003-0.001,0.004-0.001  c2.645,3.555,6.871,5.863,11.642,5.863c4.77,0,8.997-2.309,11.641-5.864c0.638,0.193,1.269,0.403,1.894,0.627  c0.051,0.018,0.101,0.039,0.152,0.057c0.584,0.212,1.163,0.436,1.734,0.674c0.031,0.013,0.062,0.027,0.093,0.04  c0.594,0.25,1.182,0.513,1.762,0.79c0.004,0.002,0.008,0.004,0.012,0.006c0.6,0.287,1.193,0.589,1.777,0.904  c-0.547,4.3,0.818,8.797,4.121,12.099c3.314,3.315,7.834,4.678,12.151,4.113c0,0,0,0.001,0,0.001  c0.205,0.377,0.395,0.763,0.588,1.147c0.162,0.321,0.324,0.642,0.477,0.967c0.176,0.374,0.345,0.753,0.511,1.133  c0.161,0.372,0.315,0.748,0.465,1.126c0.139,0.348,0.28,0.694,0.409,1.047c0.252,0.69,0.489,1.387,0.704,2.094  c-3.352,2.658-5.51,6.756-5.51,11.366c0,4.683,2.228,8.838,5.672,11.491c-0.101,0.347-0.2,0.695-0.31,1.039  c-0.722,2.267-1.648,4.443-2.742,6.517c-4.256-0.497-8.689,0.874-11.953,4.139c-3.351,3.35-4.709,7.932-4.096,12.289  c-2.488,1.39-5.137,2.523-7.913,3.364c-2.644-3.554-6.87-5.861-11.64-5.861c-4.77,0-8.997,2.307-11.641,5.86  c-2.55-0.772-4.992-1.79-7.302-3.027c0.734-4.457-0.611-9.19-4.049-12.627c-3.423-3.423-8.131-4.772-12.571-4.059  c-1.113-2.097-2.052-4.299-2.783-6.594c-0.066-0.209-0.125-0.421-0.188-0.631c3.754-2.622,6.21-6.973,6.21-11.899  C240.43,553.697,238.048,549.409,234.396,546.774z M170.185,491.526l0.999-5.65c0.445-2.543,2.869-4.245,5.412-3.819  c6.53,1.078,12.299,4.858,15.91,10.399c1.167,1.781,2.078,3.71,2.721,5.739l1.267,3.958c1.079,3.384-1.454,6.837-4.997,6.837h-6.659  c-7.381,0-13.644-5.402-14.713-12.704C169.888,494.702,169.908,493.099,170.185,491.526z" style="fill:#231F20;"/><path d="M272.753,573.38c7.08,0,12.977-5.073,14.252-11.784c0.168-0.882,0.256-1.792,0.256-2.724  c0-0.88-0.077-1.741-0.23-2.579c-0.252-1.408-0.705-2.742-1.332-3.977c-2.393-4.72-7.292-7.955-12.946-7.955  c-5.655,0-10.556,3.235-12.949,7.955c-0.628,1.235-1.081,2.57-1.332,3.977c-0.153,0.837-0.23,1.699-0.23,2.579  c0,0.932,0.088,1.843,0.257,2.724C259.774,568.306,265.671,573.38,272.753,573.38z" style="fill:#231F20;"/><path d="M725.389,573.38c7.08,0,12.977-5.073,14.252-11.784c0.168-0.882,0.256-1.792,0.256-2.724  c0-0.88-0.077-1.741-0.23-2.579c-0.252-1.408-0.705-2.742-1.333-3.977c-2.393-4.72-7.292-7.955-12.946-7.955  c-5.655,0-10.556,3.235-12.949,7.955c-0.628,1.235-1.081,2.57-1.332,3.977c-0.153,0.837-0.23,1.699-0.23,2.579  c0,0.932,0.088,1.843,0.256,2.724C712.41,568.306,718.307,573.38,725.389,573.38z" style="fill:#231F20;"/></svg>