<?xml version="1.0" ?><svg viewBox="0 0 46.91 48" xmlns="http://www.w3.org/2000/svg"><defs><style>.cls-1{fill:#cae0ff;fill-rule:evenodd;}.cls-2{fill:#0e2238;}.cls-3{fill:#37bf44;}</style></defs><g data-name="Layer 2" id="Layer_2"><g data-name="Layer 1" id="Layer_1-2"><path class="cls-1" d="M20.9,27.25h5.21v-3.2H20.9Z"/><path class="cls-1" d="M27.26,27.25h5.21v-3.2H27.26Z"/><path class="cls-2" d="M22.83,6.33a.74.74,0,0,0,.75-.75V.75A.75.75,0,0,0,22.83,0H.75A.76.76,0,0,0,0,.75V5.58a.75.75,0,0,0,.75.75H2.19V48h1.5V6.33ZM1.5,1.5H22.08V4.83H1.5Z"/><path class="cls-2" d="M31.91,14.88H17.47a.75.75,0,0,0-.75.75v5.53a.74.74,0,0,0,.75.75H31.91a.74.74,0,0,0,.75-.75V15.63A.75.75,0,0,0,31.91,14.88Zm-.75,5.53H18.22v-4H31.16Z"/><rect class="cls-2" height="1.5" width="5.2" x="27.26" y="37.62"/><rect class="cls-2" height="1.14" width="1.14" x="24.35" y="17.83"/><rect class="cls-2" height="1.14" width="1.14" x="26.52" y="17.83"/><rect class="cls-2" height="1.14" width="1.14" x="28.69" y="17.83"/><path class="cls-2" d="M43.67,24V35a2,2,0,1,1-4.05,0V30.11a2.53,2.53,0,0,0-2.53-2.52h-.76V13.84a2.77,2.77,0,0,0-2.77-2.77H15.82a2.77,2.77,0,0,0-2.77,2.77V41H10.52a.75.75,0,0,0-.75.75v5.48a.75.75,0,0,0,.75.75H38.87a.76.76,0,0,0,.75-.75V41.71a.76.76,0,0,0-.75-.75H36.33V29.09h.76a1,1,0,0,1,1,1V35a3.53,3.53,0,1,0,7.05,0V24ZM38.12,46.44H11.27v-4H38.12ZM14.55,41V13.84a1.27,1.27,0,0,1,1.27-1.27H33.56a1.27,1.27,0,0,1,1.27,1.27V41Z"/><path class="cls-3" d="M46.69,24.91,43,21.24l-1.58-1.57a2.71,2.71,0,0,0-1.95-.82H37.28v1.5h2.21a1.27,1.27,0,0,1,.89.38l1,1-.51.51A3.36,3.36,0,0,0,43.28,28a3.33,3.33,0,0,0,2.37-1l1-1a.76.76,0,0,0,0-1.07Z"/></g></g></svg>